<?xml version="1.0" encoding="UTF-8" standalone="no"?>
<svg
   inkscape:version="1.1.1 (3bf5ae0d25, 2021-09-20, custom)"
   sodipodi:docname="z_hipro_dremel_lc40_cut_b.svg"
   id="svg4200"
   version="1.1"
   height="11in"
   width="17in"
   viewBox="0 0 1632 1056.0001"
   xmlns:inkscape="http://www.inkscape.org/namespaces/inkscape"
   xmlns:sodipodi="http://sodipodi.sourceforge.net/DTD/sodipodi-0.dtd"
   xmlns="http://www.w3.org/2000/svg"
   xmlns:svg="http://www.w3.org/2000/svg"
   xmlns:rdf="http://www.w3.org/1999/02/22-rdf-syntax-ns#"
   xmlns:cc="http://creativecommons.org/ns#"
   xmlns:dc="http://purl.org/dc/elements/1.1/">
  <metadata
     id="metadata4204">
    <rdf:RDF>
      <cc:Work
         rdf:about="">
        <dc:format>image/svg+xml</dc:format>
        <dc:type
           rdf:resource="http://purl.org/dc/dcmitype/StillImage" />
      </cc:Work>
    </rdf:RDF>
  </metadata>
  <sodipodi:namedview
     inkscape:current-layer="g3822"
     inkscape:window-maximized="1"
     inkscape:window-y="0"
     inkscape:window-x="0"
     inkscape:cy="601.04076"
     inkscape:cx="482.82135"
     inkscape:zoom="0.45254834"
     showgrid="false"
     id="namedview4202"
     inkscape:window-height="1061"
     inkscape:window-width="1920"
     inkscape:pageshadow="2"
     inkscape:pageopacity="0"
     guidetolerance="10"
     gridtolerance="10"
     objecttolerance="10"
     borderopacity="1"
     bordercolor="#666666"
     pagecolor="#424242"
     inkscape:pagecheckerboard="0"
     showborder="true"
     units="in"
     width="48in"
     inkscape:document-units="in" />
  <defs
     id="defs14">
    <marker
       style="overflow:visible"
       refY="0"
       refX="0"
       orient="auto"
       id="DistanceX">
      <path
         id="path2"
         style="stroke:#000000;stroke-width:0.5"
         d="M 3,-3 -3,3 M 0,-5 V 5" />
    </marker>
    <pattern
       y="0"
       x="0"
       height="8"
       width="8"
       patternUnits="userSpaceOnUse"
       id="Hatch">
      <path
         id="path5"
         linecap="square"
         stroke-width="0.25"
         stroke="#000000"
         d="M8 4 l-4,4" />
      <path
         id="path7"
         linecap="square"
         stroke-width="0.25"
         stroke="#000000"
         d="M6 2 l-4,4" />
      <path
         id="path9"
         linecap="square"
         stroke-width="0.25"
         stroke="#000000"
         d="M4 0 l-4,4" />
    </pattern>
    <symbol
       id="*MODEL_SPACE" />
    <symbol
       id="*PAPER_SPACE" />
  </defs>
  <g
     id="g16"
     inkscape:label="0"
     inkscape:groupmode="layer" />
  <g
     id="g3822"
     inkscape:label="cutting"
     inkscape:groupmode="layer">
    <path
       id="path3406"
       style="fill:none;stroke:#ffff00;stroke-opacity:1;stroke-width:0.13333334;stroke-miterlimit:4;stroke-dasharray:none"
       d="m 1414.2171,674.9817 c 0.1417,0.8975 0.2835,1.7949 0.699,2.5696 0.4044,0.7539 1.068,1.3915 1.8326,1.8327 0.7855,0.4532 1.6776,0.6991 2.5696,0.699 0.892,0 1.7839,-0.2458 2.5694,-0.699 0.7646,-0.4412 1.4283,-1.0788 1.8327,-1.8327 0.4156,-0.7747 0.5573,-1.6721 0.6991,-2.5696" />
    <path
       id="path3408"
       style="fill:none;stroke:#ffff00;stroke-opacity:1;stroke-width:0.13333334;stroke-miterlimit:4;stroke-dasharray:none"
       d="m 1430.6542,693.8755 c 1.3243,-0.2079 2.6487,-0.4158 3.8146,-1.0319 1.1312,-0.5978 2.1134,-1.5799 2.7112,-2.7112 0.6161,-1.1659 0.8239,-2.4902 1.0318,-3.8145" />
    <path
       id="path3410"
       style="fill:none;stroke:#ffff00;stroke-opacity:1;stroke-width:0.13333334;stroke-miterlimit:4;stroke-dasharray:none"
       d="m 1419.3183,146.1943 c -0.892,0.1418 -1.7841,0.2836 -2.5696,0.6991 -0.7646,0.4044 -1.4282,1.0681 -1.8326,1.8327 -0.4155,0.7855 -0.5573,1.6775 -0.699,2.5695" />
    <path
       id="path3412"
       style="fill:none;stroke:#ffff00;stroke-opacity:1;stroke-width:0.13333334;stroke-miterlimit:4;stroke-dasharray:none"
       d="m 445.76291,134.1449 c -0.1418,-0.8974 -0.2836,-1.7948 -0.6991,-2.5695 -0.4044,-0.7539 -1.0681,-1.3915 -1.8327,-1.8326 -0.7855,-0.4533 -1.6775,-0.6991 -2.5695,-0.6991 -0.892,0 -1.784,0.2458 -2.5696,0.6991 -0.7645,0.4411 -1.4282,1.0787 -1.8327,1.8326 -0.4155,0.7747 -0.5572,1.6721 -0.699,2.5695" />
    <path
       id="path3414"
       style="fill:none;stroke:#ffff00;stroke-opacity:1;stroke-width:0.13333334;stroke-miterlimit:4;stroke-dasharray:none"
       d="m 425.87781,674.9817 c 0.1418,0.892 0.2836,1.784 0.6991,2.5696 0.4044,0.7645 1.0681,1.4283 1.8327,1.8327 0.7855,0.4155 1.6775,0.5573 2.5695,0.699" />
    <path
       id="path3416"
       style="fill:none;stroke:#ffff00;stroke-opacity:1;stroke-width:0.13333334;stroke-miterlimit:4;stroke-dasharray:none"
       d="m 436.08041,674.9817 c -0.1418,-0.892 -0.2835,-1.7839 -0.699,-2.5695 -0.4045,-0.7646 -1.0682,-1.4283 -1.8327,-1.8327 -0.7856,-0.4155 -1.6776,-0.5573 -2.5696,-0.6991" />
    <path
       id="path3418"
       style="fill:none;stroke:#ffff00;stroke-opacity:1;stroke-width:0.13333334;stroke-miterlimit:4;stroke-dasharray:none"
       d="m 931.89791,129.0437 c -0.8974,0.1418 -1.7949,0.2835 -2.5696,0.6991 -0.7539,0.4044 -1.3915,1.0681 -1.8326,1.8326 -0.4532,0.7856 -0.699,1.6775 -0.699,2.5695 0,0.892 0.2458,1.7841 0.699,2.5696 0.4411,0.7645 1.0787,1.4282 1.8326,1.8326 0.7747,0.4156 1.6722,0.5573 2.5696,0.6991" />
    <path
       id="path3420"
       style="fill:none;stroke:#ffff00;stroke-opacity:1;stroke-width:0.13333334;stroke-miterlimit:4;stroke-dasharray:none"
       d="m 105.30841,674.9817 c -0.1418,-0.892 -0.2836,-1.7839 -0.6991,-2.5695 -0.4044,-0.7646 -1.0681,-1.4283 -1.8327,-1.8327 -0.7855,-0.4155 -1.6775,-0.5573 -2.5695,-0.6991" />
    <path
       id="path3422"
       style="fill:none;stroke:#ffff00;stroke-opacity:1;stroke-width:0.13333334;stroke-miterlimit:4;stroke-dasharray:none"
       d="m 81.313409,686.3179 c 0.2078,1.3243 0.4157,2.6486 1.0318,3.8145 0.5978,1.1313 1.5799,2.1134 2.7112,2.7112 1.1659,0.6161 2.4902,0.824 3.8144,1.0319" />
    <path
       id="path3424"
       style="fill:none;stroke:#ffff00;stroke-opacity:1;stroke-width:0.13333334;stroke-miterlimit:4;stroke-dasharray:none"
       d="m 95.105809,674.9817 c 0.1418,0.892 0.2835,1.784 0.699,2.5696 0.4045,0.7645 1.0682,1.4283 1.8327,1.8327 0.7856,0.4155 1.6776,0.5573 2.569601,0.699" />
    <path
       id="path3428"
       style="fill:none;stroke:#ffff00;stroke-opacity:1;stroke-width:0.13333334;stroke-miterlimit:4;stroke-dasharray:none"
       d="m 936.99921,134.1449 c -0.1418,-0.892 -0.2836,-1.7839 -0.6991,-2.5695 -0.4044,-0.7645 -1.0682,-1.4282 -1.8327,-1.8326 -0.7855,-0.4155 -1.6775,-0.5573 -2.5695,-0.6991" />
    <path
       id="path3430"
       style="fill:none;stroke:#ffff00;stroke-opacity:1;stroke-width:0.13333334;stroke-miterlimit:4;stroke-dasharray:none"
       d="m 931.89791,139.2462 c 0.892,-0.1418 1.784,-0.2836 2.5695,-0.6991 0.7645,-0.4044 1.4283,-1.068 1.8327,-1.8326 0.4155,-0.7855 0.5573,-1.6775 0.6991,-2.5695" />
    <path
       id="path3432"
       style="fill:none;stroke:#ffff00;stroke-opacity:1;stroke-width:0.13333334;stroke-miterlimit:4;stroke-dasharray:none"
       d="m 100.20711,669.8804 c -0.892001,0.1418 -1.784001,0.2836 -2.569601,0.6991 -0.7645,0.4044 -1.4282,1.0681 -1.8327,1.8327 -0.4155,0.7856 -0.5572,1.6775 -0.699,2.5695" />
    <path
       id="path3434"
       style="fill:none;stroke:#ffff00;stroke-opacity:1;stroke-width:0.13333334;stroke-miterlimit:4;stroke-dasharray:none"
       d="m 100.20711,146.1943 c -0.892001,0.1418 -1.784001,0.2836 -2.569601,0.6991 -0.7645,0.4044 -1.4282,1.0681 -1.8327,1.8327 -0.4155,0.7855 -0.5572,1.6775 -0.699,2.5695" />
    <path
       id="path3436"
       style="fill:none;stroke:#ffff00;stroke-opacity:1;stroke-width:0.13333334;stroke-miterlimit:4;stroke-dasharray:none"
       d="m 100.20711,680.083 c 0.892,-0.1417 1.784,-0.2835 2.5695,-0.699 0.7646,-0.4044 1.4283,-1.0682 1.8327,-1.8327 0.4155,-0.7856 0.5573,-1.6776 0.6991,-2.5696" />
    <path
       id="path3438"
       style="fill:none;stroke:#ffff00;stroke-opacity:1;stroke-width:0.13333334;stroke-miterlimit:4;stroke-dasharray:none"
       d="m 105.30841,151.2956 c -0.1418,-0.892 -0.2836,-1.784 -0.6991,-2.5695 -0.4044,-0.7646 -1.0681,-1.4283 -1.8327,-1.8327 -0.7855,-0.4155 -1.6775,-0.5573 -2.5695,-0.6991" />
    <path
       id="path3440"
       style="fill:none;stroke:#ffff00;stroke-opacity:1;stroke-width:0.13333334;stroke-miterlimit:4;stroke-dasharray:none"
       d="M 1035.6687,132.4019 724.06711,68.155698" />
    <path
       id="path3442"
       style="fill:none;stroke:#ffff00;stroke-opacity:1;stroke-width:0.13333334;stroke-miterlimit:4;stroke-dasharray:none"
       d="m 88.870809,132.4019 c -1.3242,0.2079 -2.6485,0.4158 -3.8144,1.0318 -1.1313,0.5978 -2.1134,1.58 -2.7112,2.7113 -0.6161,1.1659 -0.824,2.4902 -1.0318,3.8144" />
    <path
       id="path3444"
       style="fill:none;stroke:#ffff00;stroke-opacity:1;stroke-width:0.13333334;stroke-miterlimit:4;stroke-dasharray:none"
       d="m 440.66161,139.2462 c 0.892,-0.1418 1.784,-0.2836 2.5695,-0.6991 0.7646,-0.4044 1.4283,-1.068 1.8327,-1.8326 0.4155,-0.7855 0.5573,-1.6775 0.6991,-2.5695" />
    <path
       id="path3446"
       style="fill:none;stroke:#ffff00;stroke-opacity:1;stroke-width:0.13333334;stroke-miterlimit:4;stroke-dasharray:none"
       d="m 100.20711,156.397 c 0.892,-0.1418 1.784,-0.2836 2.5695,-0.6991 0.7646,-0.4044 1.4283,-1.0681 1.8327,-1.8327 0.4155,-0.7855 0.5573,-1.6776 0.6991,-2.5696" />
    <path
       id="path3448"
       style="fill:none;stroke:#ffff00;stroke-opacity:1;stroke-width:0.13333334;stroke-miterlimit:4;stroke-dasharray:none"
       d="m 1424.4195,674.9817 c -0.1418,-0.8974 -0.2835,-1.7949 -0.6991,-2.5695 -0.4044,-0.7539 -1.0681,-1.3916 -1.8327,-1.8327 -0.7855,-0.4532 -1.6774,-0.699 -2.5694,-0.6991 -0.892,0 -1.7841,0.2459 -2.5696,0.6991 -0.7646,0.4411 -1.4282,1.0788 -1.8326,1.8327 -0.4155,0.7747 -0.5573,1.6721 -0.699,2.5695" />
    <path
       id="path3450"
       style="fill:none;stroke:#ffff00;stroke-opacity:1;stroke-width:0.13333334;stroke-miterlimit:4;stroke-dasharray:none"
       d="m 936.99921,674.9817 c -0.1418,-0.8974 -0.2836,-1.7949 -0.6991,-2.5695 -0.4044,-0.7539 -1.0682,-1.3916 -1.8327,-1.8327 -0.7855,-0.4532 -1.6775,-0.699 -2.5695,-0.6991 -0.892,0 -1.784,0.2459 -2.5696,0.6991 -0.7645,0.4411 -1.4282,1.0788 -1.8326,1.8327 -0.4155,0.7747 -0.5572,1.6721 -0.699,2.5695" />
    <path
       id="path3452"
       style="fill:none;stroke:#ffff00;stroke-opacity:1;stroke-width:0.13333334;stroke-miterlimit:4;stroke-dasharray:none"
       d="M 336.89101,132.4019 H 88.870809" />
    <path
       id="path3454"
       style="fill:none;stroke:#ffff00;stroke-opacity:1;stroke-width:0.13333334;stroke-miterlimit:4;stroke-dasharray:none"
       d="m 931.89791,680.083 c 0.892,-0.1417 1.784,-0.2835 2.5695,-0.699 0.7645,-0.4044 1.4283,-1.0682 1.8327,-1.8327 0.4155,-0.7856 0.5573,-1.6776 0.6991,-2.5696" />
    <path
       id="path3456"
       style="fill:none;stroke:#ffff00;stroke-opacity:1;stroke-width:0.13333334;stroke-miterlimit:4;stroke-dasharray:none"
       d="M 81.313409,139.9594 V 686.3179" />
    <path
       id="path3458"
       style="fill:none;stroke:#ffff00;stroke-opacity:1;stroke-width:0.13333334;stroke-miterlimit:4;stroke-dasharray:none"
       d="m 926.79671,674.9817 c 0.1418,0.892 0.2835,1.784 0.699,2.5696 0.4044,0.7645 1.0681,1.4283 1.8326,1.8327 0.7856,0.4155 1.6776,0.5573 2.5696,0.699" />
    <path
       id="path3460"
       style="fill:none;stroke:#ffff00;stroke-opacity:1;stroke-width:0.13333334;stroke-miterlimit:4;stroke-dasharray:none"
       d="m 430.97911,680.083 c 0.892,-0.1417 1.784,-0.2835 2.5696,-0.699 0.7645,-0.4044 1.4282,-1.0682 1.8327,-1.8327 0.4155,-0.7856 0.5572,-1.6776 0.699,-2.5696" />
    <path
       id="path3462"
       style="fill:none;stroke:#ffff00;stroke-opacity:1;stroke-width:0.13333334;stroke-miterlimit:4;stroke-dasharray:none"
       d="m 1419.3183,156.397 c 0.892,-0.1418 1.7839,-0.2836 2.5694,-0.6991 0.7646,-0.4044 1.4283,-1.0681 1.8327,-1.8327 0.4156,-0.7855 0.5573,-1.6776 0.6991,-2.5696" />
    <path
       id="path3464"
       style="fill:none;stroke:#ffff00;stroke-opacity:1;stroke-width:0.13333334;stroke-miterlimit:4;stroke-dasharray:none"
       d="m 1414.2171,151.2956 c 0.1417,0.892 0.2835,1.7841 0.699,2.5696 0.4044,0.7646 1.068,1.4283 1.8326,1.8327 0.7855,0.4156 1.6776,0.5573 2.5696,0.6991" />
    <path
       id="path3466"
       style="fill:none;stroke:#ffff00;stroke-opacity:1;stroke-width:0.13333334;stroke-miterlimit:4;stroke-dasharray:none"
       d="m 663.60731,693.8755 v -64.6796 h 45.3448" />
    <path
       id="path3468"
       style="fill:none;stroke:#ffff00;stroke-opacity:1;stroke-width:0.13333334;stroke-miterlimit:4;stroke-dasharray:none"
       d="M 88.870809,693.8755 H 663.60731" />
    <path
       id="path3470"
       style="fill:none;stroke:#ffff00;stroke-opacity:1;stroke-width:0.13333334;stroke-miterlimit:4;stroke-dasharray:none"
       d="m 95.105809,151.2956 c 0.1418,0.892 0.2835,1.7841 0.699,2.5696 0.4045,0.7646 1.0682,1.4283 1.8327,1.8327 0.7856,0.4155 1.6776,0.5573 2.569601,0.6991" />
    <path
       id="path3472"
       style="fill:none;stroke:#ffff00;stroke-opacity:1;stroke-width:0.13333334;stroke-miterlimit:4;stroke-dasharray:none"
       d="M 1438.2118,686.3179 V 139.9594" />
    <path
       id="path3474"
       style="fill:none;stroke:#ffff00;stroke-opacity:1;stroke-width:0.13333334;stroke-miterlimit:4;stroke-dasharray:none"
       d="m 708.95211,629.1959 v 64.6796" />
    <path
       id="path3476"
       style="fill:none;stroke:#ffff00;stroke-opacity:1;stroke-width:0.13333334;stroke-miterlimit:4;stroke-dasharray:none"
       d="m 724.06711,68.155698 h -75.5748" />
    <path
       id="path3478"
       style="fill:none;stroke:#ffff00;stroke-opacity:1;stroke-width:0.13333334;stroke-miterlimit:4;stroke-dasharray:none"
       d="M 1430.6542,132.4019 H 1035.6687" />
    <path
       id="path3480"
       style="fill:none;stroke:#ffff00;stroke-opacity:1;stroke-width:0.13333334;stroke-miterlimit:4;stroke-dasharray:none"
       d="m 430.97911,669.8804 c -0.892,0.1418 -1.784,0.2836 -2.5695,0.6991 -0.7646,0.4044 -1.4283,1.0681 -1.8327,1.8327 -0.4155,0.7856 -0.5573,1.6776 -0.6991,2.5695" />
    <path
       id="path3482"
       style="fill:none;stroke:#ffff00;stroke-opacity:1;stroke-width:0.13333334;stroke-miterlimit:4;stroke-dasharray:none"
       d="m 1438.2118,139.9594 c -0.2079,-1.3242 -0.4157,-2.6485 -1.0318,-3.8144 -0.5978,-1.1313 -1.58,-2.1135 -2.7112,-2.7113 -1.1659,-0.6161 -2.4903,-0.8239 -3.8146,-1.0318" />
    <path
       id="path3484"
       style="fill:none;stroke:#ffff00;stroke-opacity:1;stroke-width:0.13333334;stroke-miterlimit:4;stroke-dasharray:none"
       d="M 708.95211,693.8755 H 1430.6542" />
    <path
       id="path3486"
       style="fill:none;stroke:#ffff00;stroke-opacity:1;stroke-width:0.13333334;stroke-miterlimit:4;stroke-dasharray:none"
       d="m 1424.4195,151.2956 c -0.1418,-0.892 -0.2835,-1.784 -0.6991,-2.5695 -0.4044,-0.7646 -1.0681,-1.4283 -1.8327,-1.8327 -0.7855,-0.4155 -1.6774,-0.5573 -2.5694,-0.6991" />
    <path
       id="path3488"
       style="fill:none;stroke:#ffff00;stroke-opacity:1;stroke-width:0.13333334;stroke-miterlimit:4;stroke-dasharray:none"
       d="m 435.56031,134.145 c 0.1418,0.892 0.2835,1.784 0.699,2.5695 0.4045,0.7646 1.0682,1.4282 1.8327,1.8326 0.7856,0.4155 1.6776,0.5573 2.5696,0.6991" />
    <path
       id="path3490"
       style="fill:none;stroke:#ffff00;stroke-opacity:1;stroke-width:0.13333334;stroke-miterlimit:4;stroke-dasharray:none"
       d="M 648.49231,68.155698 336.89101,132.4019" />
    <path
       id="path3492"
       style="fill:none;stroke:#ffff00;stroke-opacity:1;stroke-width:0.13333334;stroke-miterlimit:4;stroke-dasharray:none"
       d="m 276.43621,562.4638 c 0,0.011 0,0.023 -0.01,0.034 0,0.011 -0.01,0.021 -0.017,0.029 -0.01,0.01 -0.016,0.016 -0.026,0.022 -0.01,0.01 -0.021,0.01 -0.032,0.012 -0.011,0 -0.023,0 -0.034,0 -0.011,0 -0.022,-0.01 -0.032,-0.012 -0.01,-0.01 -0.019,-0.013 -0.026,-0.022 -0.01,-0.01 -0.013,-0.019 -0.017,-0.029 0,-0.011 -0.01,-0.022 -0.01,-0.034 0,-0.011 0,-0.023 0.01,-0.034 0,-0.011 0.01,-0.021 0.017,-0.029 0.01,-0.01 0.016,-0.016 0.026,-0.022 0.01,-0.01 0.021,-0.01 0.032,-0.012 0.011,0 0.023,0 0.034,0 0.011,0 0.022,0.01 0.032,0.012 0.01,0.01 0.019,0.013 0.026,0.022 0.01,0.01 0.013,0.019 0.017,0.029 0,0.011 0,0.022 0.01,0.034" />
  </g>
  <g
     id="g4196"
     inkscape:label="area_engraving"
     inkscape:groupmode="layer" />
  <desc
     id="desc4198">z_hipro_layers_600x600.dxf - scale = 1.000000, origin = (0.000000, 0.000000), method = manual</desc>
</svg>
