<?xml version="1.0" encoding="UTF-8" standalone="no"?>
<svg
   inkscape:version="1.1.1 (3bf5ae0d25, 2021-09-20, custom)"
   sodipodi:docname="z_hipro_dremel_lc40_cut_d.svg"
   id="svg4200"
   version="1.1"
   height="10in"
   width="16in"
   viewBox="0 0 1536 960.00004"
   xmlns:inkscape="http://www.inkscape.org/namespaces/inkscape"
   xmlns:sodipodi="http://sodipodi.sourceforge.net/DTD/sodipodi-0.dtd"
   xmlns="http://www.w3.org/2000/svg"
   xmlns:svg="http://www.w3.org/2000/svg"
   xmlns:rdf="http://www.w3.org/1999/02/22-rdf-syntax-ns#"
   xmlns:cc="http://creativecommons.org/ns#"
   xmlns:dc="http://purl.org/dc/elements/1.1/">
  <metadata
     id="metadata4204">
    <rdf:RDF>
      <cc:Work
         rdf:about="">
        <dc:format>image/svg+xml</dc:format>
        <dc:type
           rdf:resource="http://purl.org/dc/dcmitype/StillImage" />
      </cc:Work>
    </rdf:RDF>
  </metadata>
  <sodipodi:namedview
     inkscape:current-layer="layer17"
     inkscape:window-maximized="0"
     inkscape:window-y="24"
     inkscape:window-x="0"
     inkscape:cy="110.29655"
     inkscape:cx="1256.5929"
     inkscape:zoom="0.12693053"
     showgrid="false"
     id="namedview4202"
     inkscape:window-height="1037"
     inkscape:window-width="1920"
     inkscape:pageshadow="2"
     inkscape:pageopacity="0"
     guidetolerance="10"
     gridtolerance="10"
     objecttolerance="10"
     borderopacity="1"
     bordercolor="#666666"
     pagecolor="#424242"
     inkscape:pagecheckerboard="0"
     showborder="true"
     showguides="false"
     units="in"
     width="16in"
     inkscape:document-units="in" />
  <defs
     id="defs14">
    <marker
       style="overflow:visible"
       refY="0"
       refX="0"
       orient="auto"
       id="DistanceX">
      <path
         id="path2"
         style="stroke:#000000;stroke-width:0.5"
         d="M 3,-3 -3,3 M 0,-5 V 5" />
    </marker>
    <pattern
       y="0"
       x="0"
       height="8"
       width="8"
       patternUnits="userSpaceOnUse"
       id="Hatch">
      <path
         id="path5"
         linecap="square"
         stroke-width="0.25"
         stroke="#000000"
         d="M8 4 l-4,4" />
      <path
         id="path7"
         linecap="square"
         stroke-width="0.25"
         stroke="#000000"
         d="M6 2 l-4,4" />
      <path
         id="path9"
         linecap="square"
         stroke-width="0.25"
         stroke="#000000"
         d="M4 0 l-4,4" />
    </pattern>
    <symbol
       id="*MODEL_SPACE" />
    <symbol
       id="*PAPER_SPACE" />
  </defs>
  <g
     inkscape:groupmode="layer"
     id="layer17"
     inkscape:label="backplate"
     style="display:inline"
     sodipodi:insensitive="true">
    <path
       id="path3406"
       style="display:inline;fill:none;stroke:#ebebeb;stroke-opacity:1"
       d="m 1394.2171,894.9817 c 0.1417,0.8975 0.2835,1.7949 0.699,2.5696 0.4044,0.7539 1.068,1.3915 1.8326,1.8327 0.7855,0.4532 1.6776,0.6991 2.5696,0.699 0.892,0 1.7839,-0.2458 2.5694,-0.699 0.7646,-0.4412 1.4283,-1.0788 1.8327,-1.8327 0.4156,-0.7747 0.5573,-1.6721 0.6991,-2.5696" />
    <path
       id="path3408"
       style="display:inline;fill:none;stroke:#ebebeb;stroke-opacity:1"
       d="m 1410.6542,913.8755 c 1.3243,-0.2079 2.6487,-0.4158 3.8146,-1.0319 1.1312,-0.5978 2.1134,-1.5799 2.7112,-2.7112 0.6161,-1.1659 0.8239,-2.4902 1.0318,-3.8145" />
    <path
       id="path3410"
       style="display:inline;fill:none;stroke:#ebebeb;stroke-opacity:1"
       d="m 1399.3183,366.19432 c -0.892,0.14176 -1.7841,0.28353 -2.5696,0.69906 -0.7646,0.40441 -1.4282,1.06813 -1.8326,1.83269 -0.4155,0.78555 -0.5573,1.67755 -0.699,2.56955" />
    <path
       id="path3412"
       style="display:inline;fill:none;stroke:#ebebeb;stroke-opacity:1"
       d="m 425.76291,354.14492 c -0.14179,-0.89743 -0.28357,-1.79486 -0.69907,-2.56948 -0.40442,-0.75395 -1.06814,-1.39155 -1.8327,-1.83268 -0.78554,-0.45323 -1.67754,-0.69907 -2.56953,-0.69907 -0.89201,0 -1.78402,0.24583 -2.56957,0.69907 -0.76455,0.44113 -1.42827,1.07873 -1.83268,1.83268 -0.4155,0.77462 -0.55728,1.67205 -0.69906,2.56948" />
    <path
       id="path3414"
       style="display:inline;fill:none;stroke:#ebebeb;stroke-opacity:1"
       d="m 405.87783,894.9817 c 0.14178,0.892 0.28356,1.784 0.69907,2.5696 0.40441,0.7645 1.06812,1.4283 1.83268,1.8327 0.78553,0.4155 1.67752,0.5573 2.56952,0.699" />
    <path
       id="path3416"
       style="display:inline;fill:none;stroke:#ebebeb;stroke-opacity:1"
       d="m 416.08044,894.9817 c -0.14178,-0.892 -0.28356,-1.7839 -0.69907,-2.5695 -0.40442,-0.7646 -1.06813,-1.4283 -1.8327,-1.8327 -0.78554,-0.4155 -1.67753,-0.5573 -2.56953,-0.6991" />
    <path
       id="path3418"
       style="display:inline;fill:none;stroke:#ebebeb;stroke-opacity:1"
       d="m 911.89795,349.04369 c -0.89748,0.14177 -1.79496,0.28354 -2.56961,0.69907 -0.75393,0.40441 -1.39151,1.06813 -1.83261,1.83268 -0.45321,0.78553 -0.699,1.6775 -0.69901,2.56948 -1e-5,0.89201 0.24578,1.78403 0.69901,2.56958 0.4411,0.76454 1.07869,1.42824 1.83261,1.83264 0.77465,0.41552 1.67213,0.55728 2.56961,0.69905" />
    <path
       id="path3420"
       style="display:inline;fill:none;stroke:#ebebeb;stroke-opacity:1"
       d="m 85.308397,894.9817 c -0.141782,-0.892 -0.283563,-1.7839 -0.699072,-2.5695 -0.404414,-0.7646 -1.068133,-1.4283 -1.832697,-1.8327 -0.785541,-0.4155 -1.677536,-0.5573 -2.569535,-0.6991" />
    <path
       id="path3422"
       style="display:inline;fill:none;stroke:#ebebeb;stroke-opacity:1"
       d="m 61.313386,906.3179 c 0.207866,1.3243 0.415734,2.6486 1.031813,3.8145 0.597803,1.1313 1.579958,2.1134 2.711251,2.7112 1.165871,0.6161 2.490136,0.824 3.814404,1.0319" />
    <path
       id="path3424"
       style="display:inline;fill:none;stroke:#ebebeb;stroke-opacity:1"
       d="m 75.105789,894.9817 c 0.141778,0.892 0.283557,1.784 0.699063,2.5696 0.404411,0.7645 1.068126,1.4283 1.832688,1.8327 0.785546,0.4155 1.67755,0.5573 2.569553,0.699" />
    <path
       id="path3428"
       style="display:inline;fill:none;stroke:#ebebeb;stroke-opacity:1"
       d="m 916.99918,354.14492 c -0.14179,-0.89198 -0.28358,-1.78396 -0.69908,-2.56948 -0.40442,-0.76456 -1.06814,-1.42827 -1.8327,-1.83268 -0.78552,-0.41549 -1.67748,-0.55728 -2.56945,-0.69907" />
    <path
       id="path3430"
       style="display:inline;fill:none;stroke:#ebebeb;stroke-opacity:1"
       d="m 911.89795,359.24619 c 0.89197,-0.14178 1.78393,-0.28356 2.56945,-0.69905 0.76456,-0.4044 1.42828,-1.06809 1.8327,-1.83264 0.41551,-0.78552 0.5573,-1.67751 0.69908,-2.56951" />
    <path
       id="path3432"
       style="display:inline;fill:none;stroke:#ebebeb;stroke-opacity:1"
       d="m 80.207093,889.8804 c -0.892003,0.1418 -1.784007,0.2836 -2.569553,0.6991 -0.764562,0.4044 -1.428277,1.0681 -1.832688,1.8327 -0.415506,0.7856 -0.557285,1.6775 -0.699063,2.5695" />
    <path
       id="path3434"
       style="display:inline;fill:none;stroke:#ebebeb;stroke-opacity:1"
       d="m 80.207093,366.19432 c -0.892003,0.14178 -1.784007,0.28355 -2.569553,0.69906 -0.764561,0.40441 -1.428277,1.06813 -1.832688,1.83269 -0.41551,0.78555 -0.557285,1.67755 -0.699063,2.56955" />
    <path
       id="path3436"
       style="display:inline;fill:none;stroke:#ebebeb;stroke-opacity:1"
       d="m 80.207093,900.083 c 0.891999,-0.1417 1.783994,-0.2835 2.569535,-0.699 0.764564,-0.4044 1.428283,-1.0682 1.832697,-1.8327 0.415509,-0.7856 0.55729,-1.6776 0.699072,-2.5696" />
    <path
       id="path3438"
       style="display:inline;fill:none;stroke:#ebebeb;stroke-opacity:1"
       d="m 85.308397,371.29562 c -0.141782,-0.892 -0.283561,-1.78401 -0.699074,-2.56955 -0.404413,-0.76456 -1.068131,-1.42828 -1.832695,-1.83269 -0.785541,-0.4155 -1.677536,-0.55728 -2.569535,-0.69906" />
    <path
       id="path3440"
       style="display:inline;fill:none;stroke:#ebebeb;stroke-opacity:1"
       d="M 1015.6687,352.40192 704.06714,288.15569" />
    <path
       id="path3442"
       style="display:inline;fill:none;stroke:#ebebeb;stroke-opacity:1"
       d="m 68.870854,352.40192 c -1.324268,0.20786 -2.648533,0.41573 -3.814405,1.03181 -1.131292,0.59781 -2.113446,1.57997 -2.711249,2.71126 -0.61608,1.16588 -0.823948,2.49016 -1.031814,3.81443" />
    <path
       id="path3444"
       style="display:inline;fill:none;stroke:#ebebeb;stroke-opacity:1"
       d="m 420.66161,359.24619 c 0.89199,-0.14178 1.78399,-0.28355 2.56953,-0.69905 0.76456,-0.4044 1.42828,-1.06809 1.8327,-1.83264 0.41551,-0.78552 0.55729,-1.67751 0.69907,-2.56951" />
    <path
       id="path3446"
       style="display:inline;fill:none;stroke:#ebebeb;stroke-opacity:1"
       d="m 80.207093,376.397 c 0.891999,-0.14178 1.783996,-0.28356 2.569535,-0.69907 0.764566,-0.40442 1.428283,-1.06815 1.832697,-1.83272 0.415514,-0.78556 0.557294,-1.67757 0.699072,-2.56959" />
    <path
       id="path3448"
       style="display:inline;fill:none;stroke:#ebebeb;stroke-opacity:1"
       d="m 1404.4195,894.9817 c -0.1418,-0.8974 -0.2835,-1.7949 -0.6991,-2.5695 -0.4044,-0.7539 -1.0681,-1.3916 -1.8327,-1.8327 -0.7855,-0.4532 -1.6774,-0.699 -2.5694,-0.6991 -0.892,0 -1.7841,0.2459 -2.5696,0.6991 -0.7646,0.4411 -1.4282,1.0788 -1.8326,1.8327 -0.4155,0.7747 -0.5573,1.6721 -0.699,2.5695" />
    <path
       id="path3450"
       style="display:inline;fill:none;stroke:#ebebeb;stroke-opacity:1"
       d="m 916.99918,894.9817 c -0.14179,-0.8974 -0.28358,-1.7949 -0.69909,-2.5695 -0.40441,-0.7539 -1.06813,-1.3916 -1.83269,-1.8327 -0.78551,-0.4532 -1.67747,-0.699 -2.56944,-0.6991 -0.89203,0 -1.78407,0.2459 -2.56962,0.6991 -0.76454,0.4411 -1.42823,1.0788 -1.83261,1.8327 -0.41549,0.7747 -0.55725,1.6721 -0.69901,2.5695" />
    <path
       id="path3452"
       style="display:inline;fill:none;stroke:#ebebeb;stroke-opacity:1"
       d="M 316.89097,352.40192 H 68.870854" />
    <path
       id="path3454"
       style="display:inline;fill:none;stroke:#ebebeb;stroke-opacity:1"
       d="m 911.89795,900.083 c 0.89197,-0.1417 1.78394,-0.2835 2.56945,-0.699 0.76456,-0.4044 1.42828,-1.0682 1.83269,-1.8327 0.41551,-0.7856 0.5573,-1.6776 0.69909,-2.5696" />
    <path
       id="path3456"
       style="display:inline;fill:none;stroke:#ebebeb;stroke-opacity:1"
       d="M 61.313386,359.95942 V 906.3179" />
    <path
       id="path3458"
       style="display:inline;fill:none;stroke:#ebebeb;stroke-opacity:1"
       d="m 906.79672,894.9817 c 0.14176,0.892 0.28352,1.784 0.69901,2.5696 0.40439,0.7645 1.06807,1.4283 1.83261,1.8327 0.78555,0.4155 1.67758,0.5573 2.56961,0.699" />
    <path
       id="path3460"
       style="display:inline;fill:none;stroke:#ebebeb;stroke-opacity:1"
       d="m 410.97914,900.083 c 0.892,-0.1417 1.78399,-0.2835 2.56953,-0.699 0.76457,-0.4044 1.42828,-1.0682 1.8327,-1.8327 0.41551,-0.7856 0.55729,-1.6776 0.69907,-2.5696" />
    <path
       id="path3462"
       style="display:inline;fill:none;stroke:#ebebeb;stroke-opacity:1"
       d="m 1399.3183,376.397 c 0.892,-0.14179 1.7839,-0.28357 2.5694,-0.69907 0.7646,-0.40442 1.4283,-1.06815 1.8327,-1.83272 0.4156,-0.78556 0.5573,-1.67757 0.6991,-2.56959" />
    <path
       id="path3464"
       style="display:inline;fill:none;stroke:#ebebeb;stroke-opacity:1"
       d="m 1394.2171,371.29562 c 0.1417,0.89201 0.2835,1.78403 0.699,2.56959 0.4044,0.76456 1.068,1.4283 1.8326,1.83272 0.7855,0.41553 1.6776,0.5573 2.5696,0.69907" />
    <path
       id="path3466"
       style="display:inline;fill:none;stroke:#ebebeb;stroke-opacity:1"
       d="m 643.60728,913.8755 v -64.6796 h 45.34488" />
    <path
       id="path3468"
       style="display:inline;fill:none;stroke:#ebebeb;stroke-opacity:1"
       d="M 68.870854,913.8755 H 643.60728" />
    <path
       id="path3470"
       style="display:inline;fill:none;stroke:#ebebeb;stroke-opacity:1"
       d="m 75.105789,371.29562 c 0.141778,0.89202 0.283554,1.78403 0.699066,2.56959 0.40441,0.76457 1.068123,1.4283 1.832685,1.83272 0.785543,0.41551 1.677547,0.55729 2.569553,0.69907" />
    <path
       id="path3472"
       style="display:inline;fill:none;stroke:#ebebeb;stroke-opacity:1"
       d="M 1418.2118,906.3179 V 359.95942" />
    <path
       id="path3474"
       style="display:inline;fill:none;stroke:#ebebeb;stroke-opacity:1"
       d="m 688.95216,849.1959 v 64.6796" />
    <path
       id="path3478"
       style="display:inline;fill:none;stroke:#ebebeb;stroke-opacity:1"
       d="M 1410.6542,352.40192 H 1015.6687" />
    <path
       id="path3480"
       style="display:inline;fill:none;stroke:#ebebeb;stroke-opacity:1"
       d="m 410.9791,889.8804 c -0.892,0.1418 -1.78399,0.2836 -2.56952,0.6991 -0.76456,0.4044 -1.42827,1.0681 -1.83268,1.8327 -0.41551,0.7856 -0.55729,1.6776 -0.69907,2.5695" />
    <path
       id="path3482"
       style="display:inline;fill:none;stroke:#ebebeb;stroke-opacity:1"
       d="m 1418.2118,359.95942 c -0.2079,-1.32427 -0.4157,-2.64855 -1.0318,-3.81443 -0.5978,-1.13129 -1.58,-2.11346 -2.7112,-2.71126 -1.1659,-0.6161 -2.4903,-0.82396 -3.8146,-1.03181" />
    <path
       id="path3484"
       style="display:inline;fill:none;stroke:#ebebeb;stroke-opacity:1"
       d="M 688.95216,913.8755 H 1410.6542" />
    <path
       id="path3486"
       style="display:inline;fill:none;stroke:#ebebeb;stroke-opacity:1"
       d="m 1404.4195,371.29562 c -0.1418,-0.892 -0.2835,-1.784 -0.6991,-2.56955 -0.4044,-0.76456 -1.0681,-1.42828 -1.8327,-1.83269 -0.7855,-0.41549 -1.6774,-0.55728 -2.5694,-0.69906" />
    <path
       id="path3488"
       style="display:inline;fill:none;stroke:#ebebeb;stroke-opacity:1"
       d="m 415.5603,354.14499 c 0.14178,0.89199 0.28356,1.78398 0.69906,2.56951 0.40441,0.76455 1.06813,1.42824 1.83268,1.83264 0.78554,0.4155 1.67754,0.55728 2.56953,0.69905" />
    <path
       id="path3490"
       style="display:inline;fill:none;stroke:#ebebeb;stroke-opacity:1"
       d="M 628.49231,288.15569 316.89097,352.40192" />
    <path
       id="path3492"
       style="display:inline;fill:none;stroke:#ebebeb;stroke-opacity:1"
       d="m 256.43622,782.46381 c -10e-4,0.0115 -0.002,0.023 -0.006,0.0338 -0.004,0.0107 -0.01,0.0206 -0.0169,0.0293 -0.007,0.009 -0.0163,0.0163 -0.0263,0.0221 -0.01,0.006 -0.0209,0.01 -0.0323,0.0117 -0.0112,0.002 -0.0227,0.002 -0.0339,0 -0.0113,-0.002 -0.0223,-0.006 -0.0323,-0.0117 -0.01,-0.006 -0.0189,-0.0133 -0.0263,-0.0221 -0.007,-0.009 -0.013,-0.0187 -0.0169,-0.0293 -0.004,-0.0108 -0.006,-0.0223 -0.006,-0.0338 0,-0.0115 0.002,-0.023 0.006,-0.0338 0.004,-0.0107 0.01,-0.0206 0.0169,-0.0293 0.007,-0.009 0.0163,-0.0163 0.0263,-0.0221 0.01,-0.006 0.0209,-0.01 0.0323,-0.0117 0.0112,-0.002 0.0227,-0.002 0.0339,0 0.0113,0.002 0.0223,0.006 0.0323,0.0117 0.01,0.006 0.0188,0.0133 0.0263,0.0221 0.007,0.009 0.0134,0.0187 0.0169,0.0293 0.004,0.0108 0.005,0.0223 0.006,0.0338" />
    <path
       id="path3476"
       style="display:inline;fill:none;stroke:#ebebeb;stroke-opacity:1"
       d="M 704.06714,288.15569 H 628.49231" />
  </g>
  <desc
     id="desc4198">z_hipro_layers_600x600.dxf - scale = 1.000000, origin = (0.000000, 0.000000), method = manual</desc>
</svg>
